{"title":"Klovn.Forever.2015.BRRip.720p.x264.AAC-PRiSTiNE [P2PDL]","uid":13107693,"size":697967582,"categoryP":"video","categoryS":"hd___movies","magnet":"?xt=urn:btih:627dd5800306b4a5b4c2879d42d870c47a59c4f6&amp;dn=Klovn.Forever.2015.BRRip.720p.x264.AAC-PRiSTiNE+%5BP2PDL%5D&amp;tr=udp%3A%2F%2Ftracker.leechers-paradise.org%3A6969&amp;tr=udp%3A%2F%2Fzer0day.ch%3A1337&amp;tr=udp%3A%2F%2Fopen.demonii.com%3A1337&amp;tr=udp%3A%2F%2Ftracker.coppersurfer.tk%3A6969&amp;tr=udp%3A%2F%2Fexodus.desync.com%3A6969","seeders":14,"leechers":2,"uploader":"VYTOP2PDL","files":7,"time":1451371489,"description":"____    ____ ____    ____ .___________.  ______   \r\n     /   /      /   / |           | /  __    \r\n    /   /      /   /  `---|  |----`|  |  |  | \r\n        /     _    _/       |  |     |  |  |  | \r\n       /        |  |         |  |     |  `--'  | \r\n    __/         |__|         |__|      ______/  \r\n                                                  \r\nPresenting Small Encodes with quality for years!\r\n                                                                                                   \r\n                                                                                                   \r\n\r\nKlovn.Forever.2015.BRRip.720p.x264.AAC-PRiSTiNE\r\n\r\n\r\nGenre: Comedy  \nhttp://www.imdb.com/title/tt4585660/\r\n\r\n\r\nFormat                                   : MPEG-4\r\nFile size                                : 651 MiB\r\nDuration                                 : 1h 38mn\r\nOverall bit rate                         : 923 Kbps\r\n\r\nVideo\r\nFormat                                   : AVC\r\nBit rate                                 : 840 Kbps\r\nWidth                                    : 1 280 pixels\r\nHeight                                   : 688 pixels\r\nDisplay aspect ratio                     : 1.85:1\r\nFrame rate mode                          : Constant\r\nFrame rate                               : 24.000 fps\r\nBit depth                                : 8 bits\r\nStream size                              : 592 MiB (91%)\r\nWriting library                          : x264 \r\n\r\nAudio\r\nFormat                                   : AAC\r\nBit rate mode                            : Variable\r\nBit rate                                 : 80.0 Kbps\r\nChannel(s)                               : 2 channels\r\nChannel positions                        : Front: L R\r\nSampling rate                            : 48.0 KHz\r\nStream size                              : 56.4 MiB (9%)\r\n\r\nSubtitle                                 : Yes (English)\r\n\r\nSceen Shots: (Click to view)\r\n \nhttp://ititli.com/EK \nhttp://ititli.com/EV \nhttp://ititli.com/Et \nhttp://ititli.com/EL \nhttp://ititli.com/Ed \nhttp://ititli.com/E0 \nhttp://ititli.com/EA \nhttp://ititli.com/El \nhttp://ititli.com/Em\r\n\r\n----------------------------------------------------------------------------------------------------\r\n\r\n\r\nEncoder Notes: Looking For Early Access To Anything You Can Provide WEBDL, DVDScr, DVDR, BluRay,\r\nDirect Audio, Music Releases and Seedboxes. If You Got anything to offer please contact us.\r\n\r\nSupport us by donating BC - 1FgwdzPsd1y25Gea8wP1qni35uGCtmkRCD\r\n\r\nSend some love!\r\nFind us and join us!","torrent":{"xt":"urn:btih:627dd5800306b4a5b4c2879d42d870c47a59c4f6","amp;dn":"Klovn.Forever.2015.BRRip.720p.x264.AAC-PRiSTiNE+%5BP2PDL%5D","amp;tr":["udp%3A%2F%2Ftracker.leechers-paradise.org%3A6969","udp%3A%2F%2Fzer0day.ch%3A1337","udp%3A%2F%2Fopen.demonii.com%3A1337","udp%3A%2F%2Ftracker.coppersurfer.tk%3A6969","udp%3A%2F%2Fexodus.desync.com%3A6969"],"infoHash":"627dd5800306b4a5b4c2879d42d870c47a59c4f6","infoHashBuffer":{"type":"Buffer","data":[98,125,213,128,3,6,180,165,180,194,135,157,66,216,112,196,122,89,196,246]},"announce":[],"urlList":[]}}